<?xml version="1.0" encoding="utf-8"?>
<svg version="1.1" xmlns:xlink="http://www.w3.org/1999/xlink" width="25px" height="25px" xmlns="http://www.w3.org/2000/svg">
  <g transform="matrix(1 0 0 1 -342 -10 )">
    <path d="M 15.625 16.1458333333333  C 15.9071180555555 16.1458333333333  16.1512586805555 16.0427517361111  16.357421875 15.8365885416667  L 22.0865885416667 10.107421875  C 22.2927517361111 9.90125868055552  22.3958333333333 9.65711805555552  22.3958333333333 9.375  C 22.3958333333333 9.09288194444448  22.2927517361111 8.84874131944448  22.0865885416667 8.642578125  L 16.357421875 2.91341145833333  C 16.0319010416667 2.57703993055552  15.6575520833333 2.50108506944448  15.234375 2.685546875  C 14.8003472222222 2.87000868055552  14.5833333333333 3.19010416666667  14.5833333333333 3.64583333333333  L 14.5833333333333 6.25  C 13.2921006944445 6.25  12.1202256944445 6.35579427083333  11.0677083333333 6.5673828125  C 10.0151909722222 6.77897135416667  9.13357204861109 7.0556640625  8.4228515625 7.3974609375  C 7.71213107638891 7.7392578125  7.0936414930556 8.16786024305552  6.5673828125 8.68326822916667  C 6.04112413194446 9.19867621527781  5.62608506944446 9.716796875  5.322265625 10.2376302083333  C 5.01844618055554 10.7584635416667  4.77701822916669 11.3498263888889  4.59798177083331 12.01171875  C 4.4189453125 12.6736111111111  4.30230034722223 13.2785373263889  4.248046875 13.8264973958333  C 4.19379340277777 14.3744574652778  4.16666666666669 14.9739583333333  4.16666666666669 15.625  C 4.16666666666669 17.5889756944445  5.07269965277777 19.7808159722222  6.884765625 22.2005208333333  C 6.9932725694444 22.3307291666667  7.12890625 22.3958333333333  7.29166666666669 22.3958333333333  C 7.36762152777777 22.3958333333333  7.43815104166669 22.3795572916667  7.50325520833331 22.3470052083333  C 7.74197048611109 22.2493489583333  7.84505208333331 22.0703125  7.8125 21.8098958333333  C 7.3350694444444 17.96875  7.67144097222223 15.4025607638889  8.82161458333331 14.111328125  C 9.32074652777777 13.5470920138889  10.0260416666667 13.1374782986111  10.9375 12.8824869791667  C 11.8489583333333 12.6274956597222  13.0642361111111 12.5  14.5833333333333 12.5  L 14.5833333333333 15.1041666666667  C 14.5833333333333 15.5598958333333  14.8003472222222 15.8799913194445  15.234375 16.064453125  C 15.3645833333333 16.1187065972222  15.4947916666667 16.1458333333333  15.625 16.1458333333333  Z M 23.6246744791667 1.37532552083333  C 24.5415581597222 2.29220920138886  25 3.39626736111114  25 4.6875  L 25 20.3125  C 25 21.6037326388889  24.5415581597222 22.7077907986111  23.6246744791667 23.6246744791667  C 22.7077907986111 24.5415581597222  21.6037326388889 25  20.3125 25  L 4.6875 25  C 3.39626736111109 25  2.29220920138891 24.5415581597222  1.37532552083331 23.6246744791667  C 0.458441840277771 22.7077907986111  0 21.6037326388889  0 20.3125  L 0 4.6875  C 0 3.39626736111114  0.458441840277771 2.29220920138886  1.37532552083331 1.37532552083333  C 2.29220920138891 0.458441840277809  3.39626736111109 0  4.6875 0  L 20.3125 0  C 21.6037326388889 0  22.7077907986111 0.458441840277809  23.6246744791667 1.37532552083333  Z " fill-rule="nonzero" fill="#868686" stroke="none" transform="matrix(1 0 0 1 342 10 )" />
  </g>
</svg>